<?xml version="1.0" encoding="UTF-8" standalone="no"?>
<svg
   version="1.1"
   width="388.77539"
   height="617"
   id="svg6"
   sodipodi:docname="policyBIOS.svg"
   inkscape:version="1.4.2 (2aeb623e1d, 2025-05-12)"
   xmlns:inkscape="http://www.inkscape.org/namespaces/inkscape"
   xmlns:sodipodi="http://sodipodi.sourceforge.net/DTD/sodipodi-0.dtd"
   xmlns="http://www.w3.org/2000/svg"
   xmlns:svg="http://www.w3.org/2000/svg">
  <defs
     id="defs1" />
  <sodipodi:namedview
     id="namedview6"
     pagecolor="#ffffff"
     bordercolor="#000000"
     borderopacity="0"
     inkscape:showpageshadow="2"
     inkscape:pageopacity="0.0"
     inkscape:pagecheckerboard="0"
     inkscape:deskcolor="#d1d1d1"
     inkscape:zoom="0.82662178"
     inkscape:cx="-39.921522"
     inkscape:cy="364.73755"
     inkscape:window-width="1920"
     inkscape:window-height="1043"
     inkscape:window-x="3240"
     inkscape:window-y="568"
     inkscape:window-maximized="1"
     inkscape:current-layer="svg6" />
  <path
     d="m 166.77539,0 2.69593,1.1026896 2.69519,1.104416 2.69482,1.1053944 1.13296,0.4630957 v 0 l 1.15586,0.4724512 6.63775,2.7253895 6.4992,2.9611649 L 196.77539,13 l 2.43566,1.140502 2.43608,1.139535 2.43685,1.137932 0.93797,0.438465 v 0 l 0.95692,0.447323 7.26204,3.389647 7.29792,3.310114 7.29906,3.308982 2.80086,1.270652 2.80074,1.270928 2.80074,1.27092 0.7021,0.318544 0.7021,0.318545 0.72337,0.328197 21.94016,9.956956 21.89229,10.060657 21.87299,10.103527 10.43885,4.821804 10.44114,4.816759 10.44747,4.803118 1.43497,0.659791 1.43487,0.66003 1.43472,0.660342 16.32972,7.515164 16.37542,7.412933 L 388.77539,101 v 40.59 40.59 41.82 l -25.9963,13.56329 v 0 l -11.53138,5.92347 -11.50262,5.90926 -11.48712,5.93722 -11.45524,6.00074 -1.2723,0.66613 v 0 l -1.29801,0.67958 -0.72212,0.37882 -0.72211,0.37882 -0.744,0.39031 -2.74314,1.41746 -2.76163,1.37871 -2.76403,1.37619 11.31421,5.68748 11.35802,5.5916 11.39027,5.53342 1.62924,0.79255 1.62923,0.79256 1.62923,0.79258 9.96217,4.84296 9.97416,4.81621 10.02387,4.71436 5.51988,2.61405 5.20558,2.84215 5.36414,2.98008 v 40.26 40.26 41.48 l -25.02888,13.65212 v 0 l -11.56276,6.0894 -3.60545,1.89901 -3.60259,1.9044 -3.60266,1.90429 -0.72233,0.38172 -0.72232,0.38173 -0.74421,0.39329 -7.21247,3.81416 -7.1939,3.84844 -7.18993,3.85644 -1.14598,0.61408 -1.14597,0.61407 -1.18071,0.63269 -4.78365,2.56458 -4.78113,2.56885 -4.77115,2.58776 -1.07182,0.57887 v 0 l -1.09347,0.59056 -1.78381,0.96388 -1.78145,0.96826 -1.78117,0.96874 L 289.77539,485 v 0 h -2 v 43.56 43.56 44.88 l -6.30547,-2.52219 -6.12798,-2.52866 -6.0978,-2.93353 -0.78091,-0.3724 -0.78091,-0.37241 -0.80457,-0.38369 -1.66908,-0.79634 -1.66843,-0.79771 -1.6678,-0.79899 -3.56146,-1.70607 -3.56476,-1.69911 -3.56464,-1.6994 -1.8258,-0.87043 -1.82564,-0.87075 -1.82549,-0.87107 -8.37927,-3.99694 -8.39717,-3.95818 -8.40282,-3.94713 -1.36193,-0.64031 -1.3619,-0.64038 -1.36186,-0.64045 -5.03104,-2.36584 -5.03124,-2.36541 -5.03178,-2.36427 -5.06214,-2.3786 -5.06115,-2.38068 -5.05988,-2.38342 -1.62438,-0.76468 -1.62475,-0.76388 -1.62513,-0.76307 -2.2461,-1.05472 -2.24483,-1.05737 -2.24455,-1.05801 -0.67424,-0.31585 -0.67425,-0.31584 -0.69467,-0.32542 -4.62016,-2.18278 v 0 L 166.77539,560 l -0.0962,-1.70826 -0.0257,-1.71226 0.002,-1.71096 -0.002,-1.66807 v 0 l -0.002,-1.70176 0.004,-1.2307 0.004,-1.23071 0.004,-1.26799 -1.4e-4,-1.28762 -1.5e-4,-1.28762 -1.5e-4,-1.32663 -2.9e-4,-3.54117 0.006,-3.54113 0.007,-3.54115 0.006,-3.69692 6e-4,-3.69692 0.001,-3.69692 0.003,-7.00525 0.008,-7.00524 0.01,-7.00524 0.0112,-7.97327 0.006,-7.97327 0.005,-7.97327 0.0105,-16.4059 0.0176,-16.40588 0.0223,-16.40589 0.64077,-0.33308 0.64077,-0.33307 0.66019,-0.34317 2.96397,-1.54144 2.96317,-1.54297 2.96316,-1.54299 1.51116,-0.78546 v 0 l 1.5417,-0.80133 6.64021,-3.45942 6.59756,-3.52924 6.56484,-3.60033 0.99209,-0.54334 0.9921,-0.54334 1.02216,-0.5598 0.79454,-0.43635 0.79455,-0.43635 0.81862,-0.44957 10.14415,-5.55156 10.21322,-5.42457 10.19781,-5.45209 5.453,-2.92043 5.44546,-2.9344 5.4448,-2.9357 -2.3061,-2.3061 -2.02571,-0.88971 -2.96897,-1.35107 -1.66156,-0.76207 v 0 l -1.69513,-0.77748 -0.59431,-0.2704 -0.59431,-0.2704 -0.61232,-0.27859 -3.18546,-1.45036 -3.17812,-1.46626 -3.17801,-1.46662 -0.66023,-0.30449 -0.66022,-0.30449 -0.68024,-0.31372 -6.97559,-3.22531 -6.9217,-3.33411 -6.91452,-3.35382 -0.59881,-0.29028 -0.59881,-0.29028 -0.61696,-0.29908 -2.96886,-1.43922 -2.96868,-1.43959 -2.96858,-1.43979 -6.45981,-3.12436 -6.47675,-3.0889 -6.47677,-3.08899 -1.31231,-0.62624 v 0 l -1.33882,-0.6389 -0.75805,-0.36125 -0.75804,-0.36126 -0.78103,-0.37221 -2.04513,-0.98569 -2.03056,-1.01162 -2.02953,-1.01734 -0.18693,-15.42906 -0.14105,-15.42897 -0.0865,-15.42993 -0.0412,-7.16457 -0.0562,-7.16387 -0.0916,-7.16412 -0.0798,-6.24471 -0.0516,-6.2442 -0.0178,-6.24521 -0.0104,-3.30686 -0.0287,-3.30506 -0.054,-3.30647 -0.058,-3.69273 -0.008,-3.68968 0.004,-3.6931 -0.0288,-1.09477 -0.0288,-1.09476 -0.0296,-1.12793 0.079,-7.24117 v 0 l 2.63462,-2.68195 2.04959,-1.30344 2.00108,-0.99505 2.23108,-0.95239 1.17964,-0.63946 1.17496,-0.64828 1.16688,-0.66246 1.18914,-0.62904 1.19082,-0.62587 1.19231,-0.62302 0.65658,-0.34633 0.65657,-0.34633 0.67647,-0.35683 1.40689,-0.74168 1.40761,-0.7403 1.40828,-0.73903 2.2393,-1.17522 2.23729,-1.17898 2.23679,-1.17998 3.11137,-1.64113 3.11202,-1.6399 3.11255,-1.63889 7.22129,-3.80358 7.21357,-3.81813 7.20967,-3.82556 0.6662,-0.35339 0.66621,-0.3534 0.68639,-0.3641 10.39699,-5.51866 10.3369,-5.61787 L 258.77539,171 257.7107,170.50524 v 0 l -1.08619,-0.50475 -21.28895,-9.89924 -21.23195,-10.01701 -21.20578,-10.07606 -2.01023,-0.95488 -2.01062,-0.95406 -2.01077,-0.95373 -3.30224,-1.56697 -3.30087,-1.5698 -3.30021,-1.57124 -1.41334,-0.67035 v 0 l -1.44188,-0.6839 -0.83798,-0.40001 -0.83797,-0.40001 -0.86336,-0.41214 -1.07472,-0.51155 v 0 L 169.39722,128.83765 167.77539,128 v 0 l -1,-1 -0.0961,-1.64491 -0.0258,-1.64905 0.002,-1.64771 -10e-4,-1.06997 -0.001,-1.06997 -0.001,-1.1024 0.004,-1.18394 0.004,-1.18395 0.004,-1.21983 -1.4e-4,-1.23885 -1.5e-4,-1.23885 -1.5e-4,-1.27639 5.8e-4,-3.40688 0.005,-3.40682 0.007,-3.40687 0.006,-3.556778 6e-4,-3.556781 0.001,-3.556784 0.003,-6.739633 0.008,-6.739617 0.01,-6.739626 0.0112,-7.670975 0.006,-7.670976 0.005,-7.670982 0.0105,-15.783828 0.0176,-15.783813 z"
     fill="#1f88e2"
     id="path2" />
  <path
     d="M 118.77539,32 V 196.01 360.02 529 l -4.11713,-1.76449 -3.88871,-1.67779 -3.93557,-2.05381 -0.90097,-0.46946 -0.90097,-0.46946 -0.92828,-0.48369 -0.95399,-0.5012 -0.95398,-0.50121 -0.9829,-0.51639 -1.01522,-0.5315 -1.01521,-0.53149 -1.04599,-0.54761 -7.53258,-3.95748 -7.47671,-4.05317 -7.45897,-4.09408 -8.1358,-4.45663 -8.18638,-4.35786 -8.19564,-4.34518 -1.36306,-0.7231 -1.36304,-0.72315 -1.36301,-0.72318 -2.04996,-1.08758 -2.04997,-1.08756 -2.05002,-1.08747 -13.4612,-7.14095 v 0 l -6.47033,-3.452 -1.78131,-0.94938 -1.78306,-0.94609 -1.78311,-0.946 -1.07943,-0.57645 -1.07942,-0.57645 -1.11214,-0.59392 -1.40693,-0.74891 v 0 L 9.51904,471.56128 8.61364,471.04606 7.70823,470.53083 6.77539,470 5.74403,469.43842 4.71267,468.87684 3.65005,468.29824 0.77539,466 v 0 l -0.74519,-2.89489 0.002,-1.13461 0.002,-1.1346 0.002,-1.16899 L 0.0243,458.35616 0.0123,457.0454 0,455.69493 l 0.0171,-1.45815 0.0177,-1.45815 0.0182,-1.45813 -0.003,-1.54614 -0.005,-1.54613 -0.008,-1.54612 -0.0135,-4.25549 0.0241,-4.25459 0.0301,-4.25537 0.0259,-4.5862 -0.009,-4.58615 -0.005,-4.58626 -0.003,-7.9482 0.0189,-7.94791 0.0337,-7.94814 0.0487,-11.49167 0.0157,-11.49153 0.008,-11.49176 0.0131,-18.64363 0.0399,-18.64347 0.0567,-18.64354 0.0551,-18.11262 0.0425,-18.11258 0.0255,-18.11269 0.002,-1.67413 v 0 l 0.002,-1.70794 0.008,-5.59896 0.008,-5.59896 0.007,-5.59896 0.0622,-46.4639 L 0.6393,138.46374 0.77539,92 l 0.61653,-0.30704 0.61653,-0.30704 0.63522,-0.31634 2.84585,-1.418 2.84509,-1.41953 2.84508,-1.41955 0.96943,-0.48275 0.96944,-0.48276 0.99881,-0.49738 6.10154,-3.04598 6.06251,-3.10941 L 32.30664,76 33.1174,75.57055 33.92816,75.14109 34.7635,74.69862 35.858,74.11884 v 0 l 1.11661,-0.5915 9.62251,-5.08422 9.7204,-4.89782 9.69664,-4.94081 L 82.25011,50.32848 98.45449,41.9978 114.4043,33.17969 116.77539,32 v 0 z"
     fill="#16c9b8"
     id="path3"
     style="fill:#2aff80" />
  <path
     d="m 388.77539,311 v 39.93 39.93 41.14 l -25.02888,13.65212 v 0 l -11.56276,6.0894 -3.60545,1.89901 -3.60259,1.9044 -3.60266,1.90429 -0.72233,0.38172 -0.72232,0.38173 -0.74421,0.39329 -7.21247,3.81416 -7.1939,3.84844 -7.18993,3.85644 -1.14598,0.61408 -1.14597,0.61407 -1.18071,0.63269 -4.78365,2.56458 -4.78113,2.56885 -4.77115,2.58776 -0.71455,0.38591 -0.71454,0.38592 -0.7362,0.3976 -1.78381,0.96388 -1.78145,0.96826 -1.78117,0.96874 L 289.77539,485 v 0 h -2 v 43.56 43.56 44.88 l -6.30547,-2.52219 -6.12798,-2.52866 -6.0978,-2.93353 -0.78091,-0.3724 -0.78091,-0.37241 -0.80457,-0.38369 -1.66908,-0.79634 -1.66843,-0.79771 -1.6678,-0.79899 -3.56146,-1.70607 -3.56476,-1.69911 -3.56464,-1.6994 -1.8258,-0.87043 -1.82564,-0.87075 -1.82549,-0.87107 -8.37927,-3.99694 -8.39717,-3.95818 -8.40282,-3.94713 -1.36193,-0.64031 -1.3619,-0.64038 -1.36186,-0.64045 -5.03104,-2.36584 -5.03124,-2.36541 -5.03178,-2.36427 -5.06214,-2.3786 -5.06115,-2.38068 -5.05988,-2.38342 -1.62438,-0.76468 -1.62475,-0.76388 -1.62513,-0.76307 -2.2461,-1.05472 -2.24483,-1.05737 -2.24455,-1.05801 -0.67424,-0.31585 -0.67425,-0.31584 -0.69467,-0.32542 -4.62016,-2.18278 v 0 L 166.77539,560 l -0.0962,-1.70826 -0.0257,-1.71226 0.002,-1.71096 -10e-4,-1.11205 -0.001,-1.11204 -0.001,-1.14574 0.004,-1.2307 0.004,-1.23071 0.004,-1.26799 -1.4e-4,-1.28762 -1.5e-4,-1.28762 -1.5e-4,-1.32663 -2.9e-4,-3.54117 0.006,-3.54113 0.007,-3.54115 0.006,-3.69692 6e-4,-3.69692 0.001,-3.69692 0.003,-7.00525 0.008,-7.00524 0.01,-7.00524 0.0112,-7.97327 0.006,-7.97327 0.005,-7.97327 0.0105,-16.4059 0.0176,-16.40588 0.0197,-16.40589 0.96115,-0.49961 v 0 l 0.98058,-0.50971 2.96397,-1.54144 2.96317,-1.54297 2.96316,-1.54299 1.00744,-0.52364 1.00745,-0.52364 1.03797,-0.53951 6.64021,-3.45942 6.59748,-3.52939 6.56492,-3.60018 1.49467,-0.81827 v 0 l 1.52486,-0.83481 0.79793,-0.43804 0.79793,-0.43804 0.82211,-0.45131 20.06073,-10.9776 20.11611,-10.99011 20.51066,-10.11432 7.20699,-3.55781 7.03353,-3.84721 7.04,-3.87574 7.41048,-4.06437 7.48263,-3.91046 7.51387,-3.86941 8.14042,-4.19332 8.09194,-4.2581 8.01764,-4.42358 10.35561,-5.71082 10.49867,-5.41948 10.5256,-5.38874 1.26278,-0.64713 1.2627,-0.6473 1.26261,-0.64747 0.90784,-0.46525 v 0 l 0.92617,-0.47466 4.80436,-2.47232 4.74116,-2.577 4.71935,-2.6304 L 387.77539,311 v 0 z"
     fill="#1f88e2"
     id="path4" />
  <path
     d="m 166.77539,428 0.33,0.66 0.33,0.66 0.34,0.68 2.03508,0.66889 2.03684,0.6638 2.04283,0.64485 5.3825,1.90742 5.10863,2.55463 5.14973,2.45494 2.09947,1.00077 2.10229,0.99457 2.10318,0.99294 2.89678,1.3678 2.8959,1.36966 2.8953,1.37094 6.40476,3.02956 6.42136,2.99364 6.42535,2.98559 1.15951,0.53883 1.15951,0.53883 1.19465,0.55515 6.69149,3.09971 6.71515,3.02938 6.76988,2.92413 6.12538,2.64913 6.04194,2.8169 6.03263,2.85185 2.41098,1.13825 2.41393,1.13194 2.41386,1.13215 1.7488,0.82268 1.7487,0.82292 1.74859,0.82315 1.25937,0.59047 v 0 l 1.28482,0.6024 1.16535,0.55035 v 0 l 1.1889,0.56147 0.69529,0.32726 0.69528,0.32726 0.71636,0.33718 1.61963,0.82861 v 0 l 1,1 0.0962,1.70826 0.0257,1.71226 -0.002,1.71096 0.002,1.66807 v 0 l 0.002,1.70176 -0.005,1.84606 v 0 l -0.005,1.88334 1.4e-4,1.28762 1.5e-4,1.28762 1.5e-4,1.32663 2.9e-4,3.54117 -0.006,3.54113 -0.007,3.54115 -0.006,3.69692 -6e-4,3.69692 -0.001,3.69692 -0.003,7.00525 -0.008,7.00524 -0.01,7.00524 -0.0112,7.97327 -0.006,7.97327 -0.005,7.97327 -0.0105,16.4059 -0.0176,16.40588 -0.0227,16.40589 -1.57828,-0.62485 -1.57763,-0.62648 -1.57737,-0.62715 -0.87861,-0.34869 -0.87862,-0.34869 -0.90523,-0.35926 -3.77998,-1.54563 -3.67651,-1.73373 -3.67902,-1.7699 -0.78091,-0.3724 -0.78091,-0.37241 -0.80457,-0.38369 -1.66908,-0.79634 -1.66843,-0.79771 -1.6678,-0.79899 -3.56146,-1.70607 -3.56476,-1.69911 -3.56464,-1.6994 -1.8258,-0.87043 -1.82564,-0.87075 -1.82549,-0.87107 -8.37927,-3.99694 -8.39717,-3.95818 -8.40282,-3.94713 -1.36193,-0.64031 -1.3619,-0.64038 -1.36186,-0.64045 -5.03104,-2.36584 -5.03124,-2.36541 -5.03178,-2.36427 -5.06214,-2.3786 -5.06115,-2.38068 -5.05988,-2.38342 -1.62438,-0.76468 -1.62475,-0.76388 -1.62513,-0.76307 -2.2461,-1.05472 -2.24483,-1.05737 -2.24455,-1.05801 -0.67424,-0.31585 -0.67425,-0.31584 -0.69467,-0.32542 -4.62016,-2.18278 v 0 L 166.77539,560 l -0.0962,-1.70826 -0.0257,-1.71226 0.002,-1.71096 -10e-4,-1.11205 -0.001,-1.11204 -0.001,-1.14574 0.004,-1.2307 0.004,-1.23071 0.004,-1.26799 -1.4e-4,-1.28762 -1.5e-4,-1.28762 -1.5e-4,-1.32663 -2.9e-4,-3.54117 0.006,-3.54113 0.007,-3.54115 0.006,-3.69692 6e-4,-3.69692 0.001,-3.69692 0.003,-7.00525 0.008,-7.00524 0.01,-7.00524 0.0112,-7.97327 0.006,-7.97327 0.005,-7.97327 0.0105,-16.4059 0.0176,-16.40588 z"
     fill="#2cb1fd"
     id="path5" />
  <path
     d="m 318.59424,275.18262 5.89165,3.36588 6.17452,2.8089 6.12353,2.91531 3.81487,1.82517 3.79632,1.86295 3.79823,1.85948 8.10201,3.95824 8.13049,3.89573 8.15935,3.83891 5.52412,2.61835 5.35845,2.83508 5.30761,3.03338 -2.46569,2.79653 -2.6495,1.45894 -3.31059,1.67813 -1.09506,0.56009 -1.09506,0.5601 -1.12824,0.57707 -1.76634,0.89429 v 0 l -1.80202,0.91235 -2.47718,1.2658 -2.47458,1.27082 -2.47402,1.27198 -0.62093,0.31883 -0.62094,0.31883 -0.63975,0.32849 -5.51148,2.83784 -5.44187,2.95411 -5.42675,2.9958 -8.10161,4.46355 -8.17572,4.30022 -8.22267,4.23623 -9.20339,4.74181 -9.12798,4.85313 -9.07146,4.98905 -6.78173,3.72115 -6.83051,3.62002 -6.85993,3.57484 -1.41781,0.73888 v 0 l -1.44645,0.7538 -1.77102,0.91982 -1.77395,0.91421 -1.77729,0.90767 -1.57052,0.81514 -1.55702,0.84199 -1.53848,0.87412 -1.02045,0.56461 v 0 l -1.04107,0.57601 -0.57702,0.33323 -0.57701,0.33322 -0.59451,0.34332 -4.78703,1.42456 -4.56865,-2.26756 -4.29812,-2.02224 -1.09482,-0.51127 -1.09482,-0.51127 -1.12799,-0.52677 -1.17265,-0.55736 -1.17264,-0.55736 -1.20818,-0.57425 -1.24221,-0.58429 -1.24243,-0.58382 -1.24265,-0.58335 -11.28228,-5.30937 -11.22684,-5.42656 -11.21671,-5.4462 -4.58315,-2.2235 -4.5928,-2.20081 -4.6053,-2.17725 -1.05985,-0.50193 -1.05985,-0.50193 -1.09197,-0.51714 -1.97761,-0.93497 -1.97923,-0.93154 -1.98115,-0.92744 -0.87487,-0.41427 -0.87487,-0.41427 -0.90138,-0.42683 -0.75805,-0.35602 -0.75805,-0.35602 -0.78102,-0.36681 -2.21861,-1.18894 -1.91362,-1.38123 -1.973,-1.55801 11.55991,-6.10374 11.58325,-6.05719 11.60172,-6.02388 6.92623,-3.59831 6.9113,-3.62515 6.90075,-3.6469 4.77508,-2.51764 4.78965,-2.48821 4.79977,-2.47023 15.54732,-7.98506 v 0 l 15.40507,-8.25493 1.78507,-0.97768 1.79017,-0.96845 1.79537,-0.95865 4.52813,-2.43048 4.3434,-2.54715 4.27812,-2.85025 13.1101,-8.42017 6.24652,0.22942 z"
     fill="#2cb1fd"
     id="path6"
     style="fill:#000080" />
</svg>
